# .PCD v.7 - Point Cloud Data file format
VERSION .7
FIELDS x y z range
SIZE 4 4 4 4
TYPE F F F F
COUNT 1 1 1 1
WIDTH 80
HEIGHT 1
VIEWPOINT 0 0 0 1 0 0 0
POINTS 80
DATA ascii
2.900000 0.500000 -2.100000 3.615245
3.100000 0.300000 -2.300000 3.871692
3.100000 0.700000 -2.100000 3.809199
3.100000 0.500000 -2.100000 3.777565
2.700000 0.500000 -1.900000 3.339162
3.300000 0.100000 -2.100000 3.912800
3.300000 0.300000 -2.100000 3.923009
3.700000 0.100000 -1.900000 4.160529
3.900000 0.100000 -2.100000 4.430576
4.700000 -0.700000 -2.700000 5.465345
4.100000 0.100000 -2.100000 4.607602
4.700000 -0.300000 -2.300000 5.241183
4.300000 0.100000 -1.700000 4.624932
3.700000 -0.100000 -1.300000 3.923009
4.300000 -0.100000 -1.700000 4.624932
3.900000 -0.500000 -1.500000 4.208325
3.900000 -0.300000 -1.500000 4.189272
4.100000 -0.500000 -1.500000 4.394315
5.300000 -0.500000 -2.500000 5.881326
4.700000 -0.300000 -2.100000 5.156549
3.100000 0.100000 -1.300000 3.363034
3.900000 0.100000 -1.900000 4.339355
2.900000 0.100000 -1.300000 3.179623
3.500000 0.100000 -1.700000 3.892300
3.500000 0.300000 -1.700000 3.902563
3.700000 0.300000 -1.700000 4.082891
3.100000 0.300000 -1.700000 3.548239
3.300000 0.300000 -1.700000 3.724245
2.700000 0.100000 -1.500000 3.090307
2.500000 0.300000 -1.300000 2.833725
3.300000 0.300000 -1.900000 3.819686
3.100000 0.500000 -1.900000 3.670150
3.500000 0.300000 -2.100000 4.092676
4.500000 -0.500000 -2.700000 5.271622
4.500000 -0.300000 -2.500000 5.156549
11.300000 -4.500000 -2.900000 12.503999
10.500000 -4.100000 -2.700000 11.590945
10.700000 -4.300000 -2.500000 11.799576
10.300000 -3.500000 -2.300000 11.118903
10.500000 -3.700000 -2.300000 11.367937
10.700000 -3.900000 -2.100000 11.580587
10.700000 -4.100000 -2.100000 11.649464
11.500000 -4.100000 -2.500000 12.462343
10.300000 -4.300000 -1.500000 11.261883
10.500000 -3.900000 -1.500000 11.300885
10.500000 -3.700000 -1.500000 11.233432
11.500000 -4.300000 -2.300000 12.491197
11.500000 -4.500000 -2.300000 12.561449
11.700000 -4.500000 -2.300000 12.744803
11.500000 -4.500000 -1.500000 12.439855
10.900000 -4.100000 -2.300000 11.870552
11.300000 -4.500000 -2.700000 12.459133
11.300000 -4.300000 -3.100000 12.481586
11.300000 -4.100000 -3.100000 12.414105
11.300000 -4.500000 -3.100000 12.551892
16.900000 -5.700000 -2.900000 18.069588
16.299999 -5.300000 -2.500000 17.321373
15.700000 -5.500000 -2.300000 16.793749
14.700000 -4.900000 -2.900000 15.764200
14.900000 -5.100000 -2.900000 16.013432
13.500000 -5.100000 -2.300000 14.613350
13.500000 -5.100000 -2.500000 14.646160
13.300000 -4.700000 -2.500000 14.325851
10.700000 -4.100000 -2.900000 11.819898
10.900000 -4.100000 -2.700000 11.954497
10.500000 -3.900000 -2.900000 11.570220
9.700000 -4.100000 -2.900000 10.922912
10.500000 -22.299999 -4.300000 25.020591
9.900000 -23.100000 -4.500000 25.531745
10.300000 -22.299999 -3.900000 24.871469
10.300000 -22.500000 -3.900000 25.050948
9.900000 -23.299999 -2.700000 25.459575
9.500000 -23.700001 -2.700000 25.675476
9.900000 -23.500000 -2.500000 25.622451
9.500000 -23.700001 -2.100000 25.619330
9.100000 -23.900000 -1.700000 25.630256
8.900000 -24.299999 -1.700000 25.934339
8.900000 -24.299999 -1.900000 25.948217
8.500000 -24.700001 -1.700000 26.176899
9.300000 -23.700001 -1.700000 25.516074
